# xmcd
#
# Track frame offsets: 
#        150
#        9963
#        19530
#        30651
#        41068
#        52229
#        63924
#        74533
#        85877
#        96637
#        106613
#        119581
#        130177
#
# Disc length: 1875 seconds
#
# Revision: 0
# Processed by: cddbd v1.5.2PL0 Copyright (c) Steve Scherf et al.
# Submitted via: ExactAudioCopy v0.99pb5
#
DISCID=ae07510d
DTITLE=Various Artist - Beginner's guide to Country CD2
DYEAR=2012
DGENRE=Country
TTITLE0=Jean Shepard - Got you on my mind
TTITLE1=Les Paul and Mary Ford - How high the moon
TTITLE2=Merle Travis and Joe Maphis - Big midnight special
TTITLE3=Hank Thompson - Drivin' nails in my coffin
TTITLE4=Jack Guthrie - Oakie boogie
TTITLE5=The Louvin Brothers - Hoping that you're hoping
TTITLE6=Faron Young - If you ain't lovin' (You ain't livin')
TTITLE7=Hank Thompson - It's better to have loved a little
TTITLE8=Faron Young - Hello walls
TTITLE9=Merle Haggard and The Strangers - Mama tried
TTITLE10=Jean Shepard - Under your spell again
TTITLE11=Wanda Jackson - Whirlpool
TTITLE12=Ferlin Husky - Wings of a dove
EXTD=
EXTT0=
EXTT1=
EXTT2=
EXTT3=
EXTT4=
EXTT5=
EXTT6=
EXTT7=
EXTT8=
EXTT9=
EXTT10=
EXTT11=
EXTT12=
PLAYORDER=
